<svg width="8" height="7" viewBox="0 0 8 7" fill="none" xmlns="http://www.w3.org/2000/svg">
<g clip-path="url(#clip0_42_781)">
<path d="M4.50823 0.108808C4.47137 0.0738822 4.42955 0.047016 4.38277 0.0282096C4.33598 0.00940318 4.28566 0 4.23179 0C4.15806 0 4.09143 0.0161198 4.03189 0.0483594C3.97234 0.0805988 3.92556 0.124256 3.89154 0.179332C3.85751 0.234408 3.8405 0.296872 3.8405 0.366724C3.8405 0.468817 3.87878 0.556132 3.95533 0.628671L7.28123 3.7156V3.28439L3.95533 6.37135C3.87878 6.44656 3.8405 6.53387 3.8405 6.63326C3.8405 6.70311 3.85751 6.76558 3.89154 6.82066C3.92556 6.87573 3.97234 6.91939 4.03189 6.95164C4.09143 6.98388 4.15806 7 4.23179 7C4.33669 7 4.42884 6.96373 4.50823 6.89118L7.87666 3.77202C7.91636 3.73709 7.94684 3.69612 7.9681 3.6491C7.98937 3.60209 8 3.55306 8 3.50201C8 3.39992 7.95889 3.30858 7.87666 3.22798L4.50823 0.108808Z" fill="#013237"/>
</g>
<defs>
<clipPath id="clip0_42_781">
<rect width="7" height="8" fill="white" transform="translate(8) rotate(90)"/>
</clipPath>
</defs>
</svg>
