<svg width="16" height="9" viewBox="0 0 16 9" fill="none" xmlns="http://www.w3.org/2000/svg">
<path fill-rule="evenodd" clip-rule="evenodd" d="M13.8251 2.26433L8.21105 6.06044C8.10831 6.1296 7.98424 6.16418 7.86017 6.16418C7.73554 6.16418 7.61147 6.1296 7.50873 6.06044L1.89469 2.26433C1.65273 2.10091 1.61399 1.80249 1.80768 1.59833C2.00192 1.39465 2.35561 1.36196 2.59701 1.52491L7.86017 5.0837L13.1228 1.52491C13.3647 1.36149 13.7179 1.39417 13.9121 1.59833C14.1058 1.80249 14.067 2.10091 13.8251 2.26433ZM14.597 0.00012207H1.1233C0.502944 0.00012207 0.000488281 0.424069 0.000488281 0.947491V8.05275C0.000488281 8.5757 0.502944 9.00012 1.1233 9.00012H14.597C15.2168 9.00012 15.7198 8.5757 15.7198 8.05275V0.947491C15.7198 0.424069 15.2168 0.00012207 14.597 0.00012207Z" fill="#DBDBDB"/>
<mask id="mask0_0_160" style="mask-type:alpha" maskUnits="userSpaceOnUse" x="0" y="0" width="16" height="10">
<path fill-rule="evenodd" clip-rule="evenodd" d="M13.8251 2.26433L8.21105 6.06044C8.10831 6.1296 7.98424 6.16418 7.86017 6.16418C7.73554 6.16418 7.61147 6.1296 7.50873 6.06044L1.89469 2.26433C1.65273 2.10091 1.61399 1.80249 1.80768 1.59833C2.00192 1.39465 2.35561 1.36196 2.59701 1.52491L7.86017 5.0837L13.1228 1.52491C13.3647 1.36149 13.7179 1.39417 13.9121 1.59833C14.1058 1.80249 14.067 2.10091 13.8251 2.26433ZM14.597 0.00012207H1.1233C0.502944 0.00012207 0.000488281 0.424069 0.000488281 0.947491V8.05275C0.000488281 8.5757 0.502944 9.00012 1.1233 9.00012H14.597C15.2168 9.00012 15.7198 8.5757 15.7198 8.05275V0.947491C15.7198 0.424069 15.2168 0.00012207 14.597 0.00012207Z" fill="white"/>
</mask>
<g mask="url(#mask0_0_160)">
<rect width="16" height="9" fill="#00B6FF"/>
</g>
</svg>
