<svg width="16" height="16" viewBox="0 0 16 16" fill="none" xmlns="http://www.w3.org/2000/svg">
<path fill-rule="evenodd" clip-rule="evenodd" d="M7.07179 8.6046C4.34076 5.87357 4.73083 5.4835 4.73083 5.4835L5.90158 4.31329C6.33248 3.88239 6.33248 3.18336 5.90158 2.75301L3.474 0.324877C3.06296 -0.0856061 2.4031 -0.112089 1.96834 0.273015C1.25276 0.906394 0.287791 1.95191 0.0494466 3.14308C-0.340622 5.09343 1.61027 7.82446 4.73083 10.9456C7.85193 14.0661 10.583 16.017 12.5333 15.6269C13.7245 15.3886 14.77 14.4236 15.4034 13.708C15.7885 13.2733 15.762 12.6134 15.3515 12.2024L12.9234 9.77481C12.493 9.34391 11.794 9.34391 11.3631 9.77481L10.1929 10.9456C10.1929 10.9456 9.80282 11.3356 7.07179 8.6046Z" fill="#DBDBDB"/>
<mask id="mask0_0_159" style="mask-type:alpha" maskUnits="userSpaceOnUse" x="0" y="-1" width="16" height="17">
<path fill-rule="evenodd" clip-rule="evenodd" d="M7.07179 8.6046C4.34076 5.87357 4.73083 5.4835 4.73083 5.4835L5.90158 4.31329C6.33248 3.88239 6.33248 3.18336 5.90158 2.75301L3.474 0.324877C3.06296 -0.0856061 2.4031 -0.112089 1.96834 0.273015C1.25276 0.906394 0.287791 1.95191 0.0494466 3.14308C-0.340622 5.09343 1.61027 7.82446 4.73083 10.9456C7.85193 14.0661 10.583 16.017 12.5333 15.6269C13.7245 15.3886 14.77 14.4236 15.4034 13.708C15.7885 13.2733 15.762 12.6134 15.3515 12.2024L12.9234 9.77481C12.493 9.34391 11.794 9.34391 11.3631 9.77481L10.1929 10.9456C10.1929 10.9456 9.80282 11.3356 7.07179 8.6046Z" fill="white"/>
</mask>
<g mask="url(#mask0_0_159)">
<rect width="16" height="16" fill="#00B6FF"/>
</g>
</svg>
